# xmcd CD database file
#
# Track frame offsets:
#	150
#	18984
#	24363
#	46856
#	60458
#	82159
#	96831
#	112261
#	128285
#	154545
#	174284
#	188987
#	208689
#	230041
#	250866
#	267835
#	291116
#	308321
#
# Disc length: 4277 seconds
#
# Revision: 0
# Processed by: cddbd v1.5.1PL0 Copyright (c) Steve Scherf et al.
# Submitted via: CDex 1.51
#
DISCID=e610b312
DTITLE=Art Tatum - Live Vol. 6, 1951 - 53
DYEAR=1951
DGENRE=Jazz
TTITLE0=Tenderly
TTITLE1=Flying Home
TTITLE2=The Man I Love
TTITLE3=On The Sunny Side Of The Street
TTITLE4=Sweet Lorraine
TTITLE5=Tea For Two
TTITLE6=Tenderly
TTITLE7=Out Of Nowhere
TTITLE8=Body And Soul
TTITLE9=Sweet Lorraine
TTITLE10=Tea For Two
TTITLE11=Moonglow
TTITLE12=Tenderly
TTITLE13=I've Got The Whole World On A String
TTITLE14=September Song
TTITLE15=Body And Soul
TTITLE16=Where Or When
TTITLE17=Taboo
EXTD=YEAR: 1951
EXTT0=
EXTT1=
EXTT2=
EXTT3=
EXTT4=
EXTT5=
EXTT6=
EXTT7=
EXTT8=
EXTT9=
EXTT10=
EXTT11=
EXTT12=
EXTT13=
EXTT14=
EXTT15=
EXTT16=
EXTT17=
PLAYORDER=
